<?xml version="1.0" ?>
<!DOCTYPE svg  PUBLIC '-//W3C//DTD SVG 1.1//EN'  'http://www.w3.org/Graphics/SVG/1.1/DTD/svg11.dtd'>
<!-- Uploaded to: SVG Repo, www.svgrepo.com, Generator: SVG Repo Mixer Tools -->
<svg width="800px" height="800px" viewBox="0 -10.37 84.749 84.749" id="Layer_1" version="1.1" xml:space="preserve" xmlns="http://www.w3.org/2000/svg" xmlns:xlink="http://www.w3.org/1999/xlink">
<g id="Base_26_">
<g>
<path d="M42.374,0C24.7,0,10.373,14.327,10.373,31.999    C10.373,49.673,24.7,64,42.374,64s32.001-14.327,32.001-32.001C74.375,14.327,60.048,0,42.374,0z M42.374,36    c-2.21,0-4-1.791-4-4.001c0-2.208,1.79-3.999,4-3.999c2.209,0,4,1.791,4,3.999C46.374,34.209,44.583,36,42.374,36z" style="fill-rule:evenodd;clip-rule:evenodd;fill:#CCCCCC;"/>
</g>
</g>
<g id="Reflection_3_">
<g>
<path d="M61.255,11.325L51.76,21.633    c2.332,2.113,3.941,4.993,4.437,8.248l13.93-1.555C69.248,21.623,66.006,15.666,61.255,11.325z M28.551,34.12l-13.93,1.555    c0.879,6.702,4.122,12.66,8.873,17l9.495-10.309C30.657,40.255,29.047,37.375,28.551,34.12z" style="fill-rule:evenodd;clip-rule:evenodd;fill:#E6E6E6;"/>
</g>
</g>
<g id="Base_27_">
<g>
<path d="M42.374,22c-5.523,0-10,4.477-10,9.999    c0,5.523,4.477,10.001,10,10.001c5.522,0,10.001-4.478,10.001-10.001C52.375,26.477,47.896,22,42.374,22z M42.374,36    c-2.21,0-4-1.791-4-4.001c0-2.208,1.79-3.999,4-3.999c2.209,0,4,1.791,4,3.999C46.374,34.209,44.583,36,42.374,36z" style="fill-rule:evenodd;clip-rule:evenodd;fill:#666666;"/>
</g>
</g>
<g/>
<g/>
<g/>
<g/>
<g/>
<g/>
<g/>
<g/>
<g/>
<g/>
<g/>
<g/>
<g/>
<g/>
<g/>
</svg>