<?xml version="1.0" encoding="utf-8" ?><svg xmlns="http://www.w3.org/2000/svg" xmlns:xlink="http://www.w3.org/1999/xlink" width="250" height="250" viewBox="0 0 250 250"><path fill="#163A64" d="M43.3122 44.4661C47.4001 36.1075 60.2901 26.5271 68.855 22.7092C78.6162 18.358 96.135 15.8525 106.403 20.1784C111.835 20.8046 119.998 25.6863 124.693 27.1887C125.297 27.674 141.871 38.905 141.767 38.864C143.328 40.3628 144.918 41.6687 146.544 43.0912C151.68 47.5852 156.615 52.3617 161.504 57.1238C161.955 57.5639 162.456 58.0507 162.839 58.5421C166.318 62.3994 176.217 73.0771 178.126 77.2281C180.934 81.0978 179.796 81.3028 180.264 84.4243C178.383 86.0537 161.106 96.3882 159.031 96.8738C157.588 96.1746 156.829 96.04 155.676 94.9031C154.514 93.9711 150.597 88.5683 149.508 87.1959C146.82 83.8076 144.064 80.4083 141.334 77.0439C139.868 75.4237 138.414 73.1643 136.99 71.7209C132.012 66.6735 126.541 59.5656 121.046 55.2665C119.381 60.4587 115.717 62.0726 112.251 65.9101C110.488 67.8615 106.263 74.5478 104.442 75.5665C101.345 80.006 97.7037 84.1525 94.6546 88.5989C85.1763 102.455 76.5637 116.884 68.8659 131.803C68.0492 133.399 64.4778 139.857 65.3265 141.408C64.6457 142.323 56.6012 148.686 55.7899 148.857C54.6403 146.915 52.2089 145.915 50.917 142.789C40.7665 127.482 33.0839 107.629 31.01 89.3274C30.4987 84.8156 30.1874 81.3373 30.9057 76.8149C32.0867 64.3887 34.151 58.4488 41.346 48.3045C41.9277 46.6651 42.4053 45.9075 43.3122 44.4661ZM46.9383 65.0191C46.9982 68.6278 47.3293 72.2269 47.9288 75.786C48.8716 81.1087 52.9356 94.5221 55.8533 98.9975C57.0542 96.6671 59.0884 92.4845 60.6728 90.5473C60.8998 89.6452 63.1873 86.2853 63.8743 85.2366C69.8213 76.117 76.355 67.3937 83.4342 59.122C85.7249 56.468 88.8106 52.8833 91.5192 50.7524C88.2249 50.0676 84.6273 48.8989 81.2672 48.1631C76.012 47.0124 72.4772 47.0345 67.256 47.2229C65.2533 47.4628 61.5468 47.8099 59.7075 48.5265C55.683 50.0942 51.8399 55.4326 48.9737 58.6378C47.0714 60.7652 47.0806 62.4077 46.9383 65.0191Z"/><defs><linearGradient id="gradient_0" gradientUnits="userSpaceOnUse" x1="148.70187" y1="72.980484" x2="105.97449" y2="21.438562"><stop offset="0" stop-color="#195486"/><stop offset="1" stop-color="#27C2F6"/></linearGradient></defs><path fill="url(#gradient_0)" d="M106.403 20.1784C111.835 20.8046 119.998 25.6863 124.693 27.1887C125.297 27.674 141.871 38.905 141.767 38.864C143.328 40.3628 144.918 41.6687 146.544 43.0912C151.68 47.5852 156.615 52.3617 161.504 57.1238C161.955 57.5639 162.456 58.0507 162.839 58.5421C166.318 62.3994 176.217 73.0771 178.126 77.2281C180.934 81.0978 179.796 81.3028 180.264 84.4243C178.383 86.0537 161.106 96.3882 159.031 96.8738C157.588 96.1746 156.829 96.04 155.676 94.9031C154.514 93.9711 150.597 88.5683 149.508 87.1959C146.82 83.8076 144.064 80.4083 141.334 77.0439C139.868 75.4237 138.414 73.1643 136.99 71.7209C132.012 66.6735 126.541 59.5656 121.046 55.2665C112.8 46.5094 102.705 39.701 91.496 35.337L89.2292 34.419C89.8163 34.3643 92.0347 34.5632 92.9679 34.5606C94.0728 33.839 93.8809 31.817 96.0136 29.9918C99.763 26.7831 104.47 25.2191 107.438 21.431C107.353 20.8085 106.994 20.7 106.403 20.1784Z"/><defs><linearGradient id="gradient_1" gradientUnits="userSpaceOnUse" x1="166.58714" y1="85.763565" x2="152.67606" y2="67.701195"><stop offset="0" stop-color="#0C2845"/><stop offset="1" stop-color="#195785"/></linearGradient></defs><path fill="url(#gradient_1)" d="M162.839 58.5421C166.318 62.3994 176.217 73.0771 178.126 77.2281C180.934 81.0978 179.796 81.3028 180.264 84.4243C178.383 86.0537 161.106 96.3882 159.031 96.8738C157.588 96.1746 156.829 96.04 155.676 94.9031C154.514 93.9711 150.597 88.5683 149.508 87.1959C146.82 83.8076 144.064 80.4083 141.334 77.0439C141.968 77.1927 142.6 77.3507 143.23 77.5178C147.51 73.081 153.39 69.396 157.892 65.0337C159.287 63.6815 161.305 62.5302 162.701 61.1256C163.192 60.6309 162.911 59.1802 162.839 58.5421Z"/><path fill="#061D38" d="M155.676 94.9031C156.218 92.46 171.017 83.0887 173.508 80.8367C174.799 79.6696 175.989 78.286 177.14 76.9797C177.567 76.9592 177.736 77.0668 178.126 77.2281C180.934 81.0978 179.796 81.3028 180.264 84.4243C178.383 86.0537 161.106 96.3882 159.031 96.8738C157.588 96.1746 156.829 96.04 155.676 94.9031Z"/><defs><linearGradient id="gradient_2" gradientUnits="userSpaceOnUse" x1="56.313618" y1="107.88463" x2="29.07303" y2="82.638443"><stop offset="0" stop-color="#1A679A"/><stop offset="1" stop-color="#2A98DD"/></linearGradient></defs><path fill="url(#gradient_2)" d="M30.9057 76.8149C31.4954 78.1845 31.0751 79.1053 31.2322 80.8581L31.4002 80.8757C32.498 78.4009 40.5633 75.1941 42.5046 72.3426C43.1271 71.4282 45.365 68.7954 46.3273 68.5789C46.9778 66.7473 45.686 65.2963 46.7262 62.9194L46.7689 62.8239L46.9383 65.0191C46.9982 68.6278 47.3293 72.2269 47.9288 75.786C48.8716 81.1087 52.9356 94.5221 55.8533 98.9975C57.0542 96.6671 59.0884 92.4845 60.6728 90.5473C60.8791 91.8758 57.415 96.3896 56.827 98.3176C56.062 100.826 57.0909 102.091 56.5687 104.68L56.5399 104.831C56.0617 107.217 51.3697 113.36 49.6719 115.261C47.1997 118.028 44.0709 120.524 41.9099 123.638L41.4785 123.439C41.8597 127.508 47.8961 136.671 50.107 140.477C50.6084 141.34 51.142 141.692 50.917 142.789C40.7665 127.482 33.0839 107.629 31.01 89.3274C30.4987 84.8156 30.1874 81.3373 30.9057 76.8149Z"/><path fill="#2ACCF1" d="M43.3122 44.4661C47.4001 36.1075 60.2901 26.5271 68.855 22.7092C78.6162 18.358 96.135 15.8525 106.403 20.1784C106.994 20.7 107.353 20.8085 107.438 21.431C104.47 25.2191 99.763 26.7831 96.0136 29.9918C93.8809 31.817 94.0728 33.839 92.9679 34.5606C92.0347 34.5632 89.8163 34.3643 89.2292 34.419L91.496 35.337C90.4396 36.0622 90.1566 35.9756 88.8616 36.0104C80.1214 32.8682 74.1091 33.7981 65.4662 33.7292L64.2285 33.3085C63.0537 33.5557 60.0601 34.2032 59.1462 34.911C55.0141 36.256 50.7505 38.8769 47.3183 41.5154C46.6254 42.0481 43.9355 44.1218 43.3122 44.4661Z"/><path fill="#010310" d="M64.2285 33.3085C71.1126 31.8104 76.3337 31.8386 83.3567 33.0572C84.7209 33.2939 88.4516 34.3256 89.2292 34.419L91.496 35.337C90.4396 36.0622 90.1566 35.9756 88.8616 36.0104C80.1214 32.8682 74.1091 33.7981 65.4662 33.7292L64.2285 33.3085Z"/><path fill="#38A1E3" d="M41.346 48.3045C45.5181 44.327 49.0495 41.3071 54.2642 38.7495C50.3536 44.5789 47.7426 49.3008 47.0071 56.5284C46.793 58.632 46.9692 60.8935 46.7689 62.8239L46.7262 62.9194C45.686 65.2963 46.9778 66.7473 46.3273 68.5789C45.365 68.7954 43.1271 71.4282 42.5046 72.3426C40.5633 75.1941 32.498 78.4009 31.4002 80.8757L31.2322 80.8581C31.0751 79.1053 31.4954 78.1845 30.9057 76.8149C32.0867 64.3887 34.151 58.4488 41.346 48.3045Z"/><path fill="#5D2A4A" d="M65.4662 33.7292C74.1091 33.7981 80.1214 32.8682 88.8616 36.0104L91.8022 37.2076C88.1462 37.3222 88.094 33.8269 84.0369 37.8292C78.5862 43.2065 75.3114 38.8164 72.1678 34.0458C69.3527 33.9014 67.8549 34.4159 65.4539 34.4098L65.1091 34.0008L65.4662 33.7292Z"/><path fill="#010310" d="M43.3122 44.4661C43.9355 44.1218 46.6254 42.0481 47.3183 41.5154C50.7505 38.8769 55.0141 36.256 59.1462 34.911C58.4832 36.2855 53.5389 37.0578 53.42 38.6214C53.5799 38.9135 54.1563 39.7621 53.9863 40.0283C50.4188 45.6162 47.1232 51.2811 47.7205 58.2847L47.9465 58.6184L48.076 58.0492C50.9171 58.0875 55.3174 45.183 67.256 47.2229C65.2533 47.4628 61.5468 47.8099 59.7075 48.5265C55.683 50.0942 51.8399 55.4326 48.9737 58.6378C47.0714 60.7652 47.0806 62.4077 46.9383 65.0191L46.7689 62.8239C46.9692 60.8935 46.793 58.632 47.0071 56.5284C47.7426 49.3008 50.3536 44.5789 54.2642 38.7495C49.0495 41.3071 45.5181 44.327 41.346 48.3045C41.9277 46.6651 42.4053 45.9075 43.3122 44.4661Z"/><path fill="#061D38" d="M91.496 35.337C102.705 39.701 112.8 46.5094 121.046 55.2665C119.381 60.4587 115.717 62.0726 112.251 65.9101C110.488 67.8615 106.263 74.5478 104.442 75.5665L104.208 75.3301C104.597 74.7551 105.023 74.2287 105.485 73.7108C108.741 70.0663 111.082 65.9532 114.82 62.7207C116.321 61.4217 119.558 58.4167 120.064 56.5697C119.863 54.6277 119.038 54.0684 117.819 52.6823C114.737 49.1777 98.2777 37.3104 94.6721 37.3285C93.4219 38.2903 93.1627 37.6946 91.8022 37.2076L88.8616 36.0104C90.1566 35.9756 90.4396 36.0622 91.496 35.337Z"/><defs><linearGradient id="gradient_3" gradientUnits="userSpaceOnUse" x1="143.30138" y1="152.40157" x2="216.56866" y2="160.96672"><stop offset="0" stop-color="#001523"/><stop offset="1" stop-color="#2C65A5"/></linearGradient></defs><path fill="url(#gradient_3)" d="M181.664 115.279C181.458 115.552 195.964 104.908 196.454 104.592C204.787 109.935 217.805 144.39 218.085 154.82C218.635 156.04 218.712 160.56 218.792 162.323C219.335 174.164 216.467 186.576 209.988 196.58C209.392 197.501 207.84 199.734 207.49 200.51C207.188 201.24 206.279 203.402 205.734 203.815C200.608 213.648 184.733 224.724 174.106 228.078C162.407 231.77 151.813 231.891 139.953 228.485C136.949 227.622 133.928 226.918 131.064 225.536C130.476 225.111 126.714 223.288 125.795 222.816C124.639 220.924 120.51 220.009 119.51 218.513C119.611 215.992 134.584 202.716 137.528 201.197L137.19 200.768C137.36 200.446 137.757 197.513 137.857 196.892C138.564 192.461 139.004 189.182 141.147 185.197C144.66 178.666 150.322 171.859 154.193 165.941C161.362 154.98 179.614 127.416 181.664 115.279ZM157.944 212.449C161.79 211.449 161.528 206.871 161.37 203.736C163.357 203.286 164.21 203.172 166.221 203.169C169.84 203.406 172.498 203.909 176.133 203.249C184.188 201.785 188.384 198.605 191.614 191.242C192.849 186.562 192.631 181.245 193.677 177.839C195.528 175.967 199.917 174.102 200.68 172.291C199.982 168.629 199.57 164.994 198.927 161.329C198.545 159.157 197.851 157.193 197.404 155.043C196.736 153.368 196.224 151.373 195.638 149.638C190.155 161.088 183.51 171.946 175.809 182.039C171.892 187.239 167.704 192.211 163.595 197.271C161.016 200.447 160.567 203.748 156.472 205.228C154.127 206.076 148.005 205.98 146.746 207.145C150.247 209.31 153.881 211.587 157.944 212.449Z"/><defs><linearGradient id="gradient_4" gradientUnits="userSpaceOnUse" x1="147.98883" y1="193.1655" x2="174.01196" y2="230.26637"><stop offset="0" stop-color="#2370AE"/><stop offset="1" stop-color="#13A3FF"/></linearGradient></defs><path fill="url(#gradient_4)" d="M197.404 155.043L197.767 155.015C199.077 158.669 199.332 161.561 200.061 165.305C200.236 166.208 201.532 167.069 202.37 166.377C205.005 164.203 207.455 161.673 210.064 159.436C211.44 158.246 212.645 156.031 214.34 155.259C215.253 154.891 214.761 152.956 215.269 152.4L215.963 153.782C217.04 154.344 216.594 153.442 217.607 153.737C217.616 154.338 217.568 154.711 217.824 155.255L218.085 154.82C218.635 156.04 218.712 160.56 218.792 162.323C219.335 174.164 216.467 186.576 209.988 196.58C209.392 197.501 207.84 199.734 207.49 200.51C207.188 201.24 206.279 203.402 205.734 203.815C200.608 213.648 184.733 224.724 174.106 228.078C162.407 231.77 151.813 231.891 139.953 228.485C136.949 227.622 133.928 226.918 131.064 225.536C130.476 225.111 126.714 223.288 125.795 222.816C124.639 220.924 120.51 220.009 119.51 218.513C119.611 215.992 134.584 202.716 137.528 201.197C139.193 202.383 145.323 206.834 146.746 207.145C150.247 209.31 153.881 211.587 157.944 212.449C161.79 211.449 161.528 206.871 161.37 203.736C163.357 203.286 164.21 203.172 166.221 203.169C169.84 203.406 172.498 203.909 176.133 203.249C184.188 201.785 188.384 198.605 191.614 191.242C192.849 186.562 192.631 181.245 193.677 177.839C195.528 175.967 199.917 174.102 200.68 172.291C199.982 168.629 199.57 164.994 198.927 161.329C198.545 159.157 197.851 157.193 197.404 155.043Z"/><defs><linearGradient id="gradient_5" gradientUnits="userSpaceOnUse" x1="199.34647" y1="156.82463" x2="213.04424" y2="203.69589"><stop offset="0" stop-color="#2A579C"/><stop offset="1" stop-color="#4C80CB"/></linearGradient></defs><path fill="url(#gradient_5)" d="M197.404 155.043L197.767 155.015C199.077 158.669 199.332 161.561 200.061 165.305C200.236 166.208 201.532 167.069 202.37 166.377C205.005 164.203 207.455 161.673 210.064 159.436C211.44 158.246 212.645 156.031 214.34 155.259C215.253 154.891 214.761 152.956 215.269 152.4L215.963 153.782C217.04 154.344 216.594 153.442 217.607 153.737C217.616 154.338 217.568 154.711 217.824 155.255L218.085 154.82C218.635 156.04 218.712 160.56 218.792 162.323C219.335 174.164 216.467 186.576 209.988 196.58C209.392 197.501 207.84 199.734 207.49 200.51C204.919 202.658 197.169 210.123 194.008 209.686C192.846 210.251 193.096 210.345 192 210.195C194.69 207.362 198.293 202.253 198.935 198.327C198.385 193.64 203.362 191.002 194.835 190.504C194.594 190.489 193.553 189.941 193.262 189.784C192.29 190.002 192.387 190.276 191.614 191.242C192.849 186.562 192.631 181.245 193.677 177.839C195.528 175.967 199.917 174.102 200.68 172.291C199.982 168.629 199.57 164.994 198.927 161.329C198.545 159.157 197.851 157.193 197.404 155.043Z"/><defs><linearGradient id="gradient_6" gradientUnits="userSpaceOnUse" x1="198.97237" y1="173.85164" x2="195.76175" y2="190.67989"><stop offset="0" stop-color="#000F29"/><stop offset="1" stop-color="#482847"/></linearGradient></defs><path fill="url(#gradient_6)" d="M200.68 172.291C201.239 174.462 201.92 177.495 202.012 179.733C200.444 183.04 201.574 192.328 198.935 198.327C198.385 193.64 203.362 191.002 194.835 190.504C194.594 190.489 193.553 189.941 193.262 189.784C192.29 190.002 192.387 190.276 191.614 191.242C192.849 186.562 192.631 181.245 193.677 177.839C195.528 175.967 199.917 174.102 200.68 172.291Z"/><defs><linearGradient id="gradient_7" gradientUnits="userSpaceOnUse" x1="200.53622" y1="197.04817" x2="195.58658" y2="194.90462"><stop offset="0" stop-color="#000001"/><stop offset="1" stop-color="#01071D"/></linearGradient></defs><path fill="url(#gradient_7)" d="M202.012 179.733C203.543 189.83 201.018 200.124 194.988 208.366C194.668 208.811 194.341 209.251 194.008 209.686C192.846 210.251 193.096 210.345 192 210.195C194.69 207.362 198.293 202.253 198.935 198.327C201.574 192.328 200.444 183.04 202.012 179.733Z"/><defs><linearGradient id="gradient_8" gradientUnits="userSpaceOnUse" x1="162.2585" y1="201.90163" x2="199.73683" y2="202.79466"><stop offset="0" stop-color="#00142C"/><stop offset="1" stop-color="#702F51"/></linearGradient></defs><path fill="url(#gradient_8)" d="M191.614 191.242C192.387 190.276 192.29 190.002 193.262 189.784C193.553 189.941 194.594 190.489 194.835 190.504C203.362 191.002 198.385 193.64 198.935 198.327C198.293 202.253 194.69 207.362 192 210.195C188.793 212.6 186.143 213.223 182.232 214.033C182.689 215.403 183.131 215.073 184.551 215.005C180.627 215.977 177.25 216.08 173.227 215.939C170.755 216.076 166.154 215.19 163.762 214.671C161.635 213.943 159.991 213.36 157.944 212.449C161.79 211.449 161.528 206.871 161.37 203.736C163.357 203.286 164.21 203.172 166.221 203.169C169.84 203.406 172.498 203.909 176.133 203.249C184.188 201.785 188.384 198.605 191.614 191.242Z"/><path fill="#061D38" d="M161.37 203.736C163.357 203.286 164.21 203.172 166.221 203.169C162.933 205.316 164.169 208.22 163.534 211.446C163.534 211.447 162.343 212.626 162.212 212.756C162.896 213.534 163.743 212.814 163.762 214.671C161.635 213.943 159.991 213.36 157.944 212.449C161.79 211.449 161.528 206.871 161.37 203.736Z"/><path fill="#061D38" d="M173.227 215.939L173.096 215.751C173.467 215.45 176.66 215.213 177.433 215.123C177.101 214.999 176.149 214.939 175.743 214.899C176.318 214.625 181.255 214.153 182.232 214.033C182.689 215.403 183.131 215.073 184.551 215.005C180.627 215.977 177.25 216.08 173.227 215.939Z"/><path fill="#010310" d="M194.008 209.686C197.169 210.123 204.919 202.658 207.49 200.51C207.188 201.24 206.279 203.402 205.734 203.815C199.716 208.392 192.242 213.707 184.551 215.005C183.131 215.073 182.689 215.403 182.232 214.033C186.143 213.223 188.793 212.6 192 210.195C193.096 210.345 192.846 210.251 194.008 209.686Z"/><defs><linearGradient id="gradient_9" gradientUnits="userSpaceOnUse" x1="92.633751" y1="152.50259" x2="170.52603" y2="94.437378"><stop offset="0" stop-color="#001225"/><stop offset="1" stop-color="#363361"/></linearGradient></defs><path fill="url(#gradient_9)" d="M192.719 75.5516C192.926 75.2066 194.508 73.7303 194.936 73.3253C197.23 71.1554 199.263 69.004 201.269 66.5628C201.839 67.9392 203.186 68.692 204.332 69.6359C206.762 71.6378 208.781 74.604 211.706 75.8073C213.111 76.3733 213.941 76.6327 215.165 77.5171L215.486 78.5953C214.471 81.3106 213.214 85.0154 211.418 87.2777C208.631 92.2662 200.993 100.967 196.454 104.592C195.964 104.908 181.458 115.552 181.664 115.279C180.069 116.059 171.891 120.883 170.967 121.05C159.472 128.666 144.36 133.48 131.831 138.703C123.527 142.164 115.889 146.793 107.275 150.307C104.611 149.762 98.0952 155.03 95.0348 154.947C92.658 153.612 84.4644 137.115 82.3077 133.927C81.9514 133.401 81.6173 133.457 80.9985 133.251C82.1797 131.372 90.0062 129.694 91.7029 127.579C92.1574 127.287 95.3064 125.994 96.0231 125.688C98.9712 124.448 101.901 123.164 104.81 121.836C118.726 115.547 133.138 110.001 146.809 103.23C150.203 101.549 153.958 99.7782 157.207 97.8906C157.749 97.4972 158.428 97.1827 159.031 96.8738C161.106 96.3882 178.383 86.0537 180.264 84.4243C185.737 80.9806 187.748 79.2505 192.719 75.5516Z"/><defs><linearGradient id="gradient_10" gradientUnits="userSpaceOnUse" x1="175.22389" y1="105.45278" x2="198.73256" y2="81.253983"><stop offset="0" stop-color="#4F437B"/><stop offset="1" stop-color="#9850AD"/></linearGradient></defs><path fill="url(#gradient_10)" d="M192.719 75.5516C192.926 75.2066 194.508 73.7303 194.936 73.3253C197.23 71.1554 199.263 69.004 201.269 66.5628C201.839 67.9392 203.186 68.692 204.332 69.6359C206.762 71.6378 208.781 74.604 211.706 75.8073C213.111 76.3733 213.941 76.6327 215.165 77.5171L215.486 78.5953C214.471 81.3106 213.214 85.0154 211.418 87.2777C208.631 92.2662 200.993 100.967 196.454 104.592C195.964 104.908 181.458 115.552 181.664 115.279C180.069 116.059 171.891 120.883 170.967 121.05C170.807 120.849 170.872 120.962 170.842 120.671C173.15 119.297 181.804 114.679 183.248 113.552C183.212 111.475 181.655 109.397 180.35 107.864C176.119 102.896 172.23 97.362 167.985 92.437C166.368 93.4938 158.762 98.051 157.207 97.8906C157.749 97.4972 158.428 97.1827 159.031 96.8738C161.106 96.3882 178.383 86.0537 180.264 84.4243C185.737 80.9806 187.748 79.2505 192.719 75.5516Z"/><path fill="#B14DB5" d="M192.719 75.5516C192.926 75.2066 194.508 73.7303 194.936 73.3253C197.23 71.1554 199.263 69.004 201.269 66.5628C201.839 67.9392 203.186 68.692 204.332 69.6359C206.762 71.6378 208.781 74.604 211.706 75.8073C213.111 76.3733 213.941 76.6327 215.165 77.5171L215.486 78.5953C214.471 81.3106 213.214 85.0154 211.418 87.2777C209.903 87.4446 209.988 89.5105 208.669 90.6308C206.694 90.5253 194.557 80.4709 192.364 78.4543C191.707 78.4215 191.619 78.4562 191.1 78.0992C191.294 77.103 192.024 76.989 192.641 75.7167L192.719 75.5516Z"/><defs><linearGradient id="gradient_11" gradientUnits="userSpaceOnUse" x1="99.859543" y1="184.28268" x2="126.5184" y2="211.33604"><stop offset="0" stop-color="#17416A"/><stop offset="1" stop-color="#216AB1"/></linearGradient></defs><path fill="url(#gradient_11)" d="M70.2646 170.604C72.604 168.048 89.9097 158.422 93.4492 156.826C99.7746 162.459 103.882 169.236 109.632 175.243C117.681 183.546 127.417 194.475 137.19 200.768L137.528 201.197C134.584 202.716 119.611 215.992 119.51 218.513C120.51 220.009 124.639 220.924 125.795 222.816C121.832 221.018 117.845 218.024 113.975 215.996C113.14 215.282 112.289 214.592 111.403 213.947C105.026 209.302 99.1294 204.049 93.3341 198.708C91.8709 197.359 90.3943 196.001 89.0278 194.548C85.4751 192.037 75.8568 180.387 73.0037 176.456C71.8135 174.816 70.961 172.504 70.2646 170.604Z"/><defs><linearGradient id="gradient_12" gradientUnits="userSpaceOnUse" x1="79.700287" y1="162.72884" x2="100.32021" y2="186.07745"><stop offset="0" stop-color="#04162A"/><stop offset="1" stop-color="#194772"/></linearGradient></defs><path fill="url(#gradient_12)" d="M70.2646 170.604C72.604 168.048 89.9097 158.422 93.4492 156.826C99.7746 162.459 103.882 169.236 109.632 175.243L94.0582 190.776C92.966 191.86 91.3029 194.182 90.4615 194.859C89.9222 194.712 89.5797 194.635 89.0278 194.548C85.4751 192.037 75.8568 180.387 73.0037 176.456C71.8135 174.816 70.961 172.504 70.2646 170.604Z"/><defs><linearGradient id="gradient_13" gradientUnits="userSpaceOnUse" x1="125.01772" y1="215.38417" x2="64.042816" y2="244.63165"><stop offset="0" stop-color="#061529"/><stop offset="1" stop-color="#044C87"/></linearGradient></defs><path fill="url(#gradient_13)" d="M40.7353 212.174C41.9744 213.158 44.0001 215.804 44.97 217.16C48.2976 221.812 53.2656 225.132 58.5642 227.34C59.9253 227.454 62.1486 228.416 63.6189 228.664C79.6047 231.362 94.752 224.707 108.458 217.218C110.146 216.296 112.603 216.809 113.975 215.996C117.845 218.024 121.832 221.018 125.795 222.816C126.714 223.288 130.476 225.111 131.064 225.536C128.674 228.656 127.038 229.682 123.739 232.096C106.737 244.528 82.1587 251.727 61.8077 243.855C60.8411 243.481 58.9248 242.633 58.1646 242.07C54.9772 241.856 47.2167 235.079 44.9478 232.748C44.9896 231.369 41.9944 226.291 41.1551 223.777C41.5239 222.613 39.9684 216.36 40.7353 212.174Z"/><path fill="#163A64" d="M40.7353 212.174C41.9744 213.158 44.0001 215.804 44.97 217.16C48.2976 221.812 53.2656 225.132 58.5642 227.34C59.1057 228.629 60.5042 227.572 61.4226 228.693C62.5448 230.062 63.2378 232.255 63.372 234.027C63.5438 236.294 65.1921 242.315 63.4362 243.896C61.6578 243.618 59.1891 241.625 58.1646 242.07C54.9772 241.856 47.2167 235.079 44.9478 232.748C44.9896 231.369 41.9944 226.291 41.1551 223.777C41.5239 222.613 39.9684 216.36 40.7353 212.174Z"/><defs><linearGradient id="gradient_14" gradientUnits="userSpaceOnUse" x1="88.543907" y1="143.03081" x2="38.696236" y2="178.17845"><stop offset="0" stop-color="#1C2C4D"/><stop offset="1" stop-color="#9050A8"/></linearGradient></defs><path fill="url(#gradient_14)" d="M65.3265 141.408C68.0721 140.013 70.8559 138.045 73.564 136.55C79.2996 133.385 85.5673 129.91 91.7029 127.579C90.0062 129.694 82.1797 131.372 80.9985 133.251C81.6173 133.457 81.9514 133.401 82.3077 133.927C84.4644 137.115 92.658 153.612 95.0348 154.947C98.0952 155.03 104.611 149.762 107.275 150.307C104.846 151.435 95.0802 155.691 93.4492 156.826C89.9097 158.422 72.604 168.048 70.2646 170.604C64.2531 173.301 55.378 181.783 51.0918 186.943C50.3915 187.786 46.9132 192.492 46.4645 192.796C46.2266 191.134 48.7123 190.08 48.899 188.794C48.4168 188.988 48.3273 189.066 47.9005 189.372C46.9082 188.478 47.5796 186.895 46.3043 185.252C44.5935 183.047 38.6003 174.92 35.887 174.474C35.063 174.911 34.7372 176.909 33.4432 177.823C39.2508 164.023 45.9772 158.929 55.7899 148.857C56.6012 148.686 64.6457 142.323 65.3265 141.408Z"/><path fill="#163A64" d="M153.587 11.9724C155.712 11.3445 157.912 11.3322 160.033 10.9751C176.819 8.15032 194.398 12.8036 205.525 26.1902C206.216 27.0213 207.179 27.96 207.52 29.0268C207.555 31.1754 208.372 32.5733 208.893 34.5461C208.264 35.5609 208.933 37.5152 209.055 38.7322C209.351 41.6779 209.544 45.2322 208.618 48.0814C204.792 42.199 202.51 37.5169 196.071 33.7004C184.136 26.6253 174.279 28.171 161.773 31.1305C159.914 32.3487 154.759 33.6547 152.445 34.6476C149.217 36.0332 145.735 37.7561 142.263 38.2305C142.147 38.2431 141.818 38.686 141.767 38.864C141.871 38.905 125.297 27.674 124.693 27.1887L125.252 27.0262C128.036 19.8688 146.499 13.7393 153.587 11.9724Z"/><path fill="#061D38" d="M124.693 27.1887L125.252 27.0262C128.036 19.8688 146.499 13.7393 153.587 11.9724C152.083 13.6713 143.99 14.0859 144.405 15.9855C145.267 19.9286 150.546 27.2451 153.399 30.0011C153.734 30.3253 154.089 30.6266 154.464 30.9029C154.677 32.2561 154.206 32.3367 154.716 33.1742C156.242 33.3284 160.972 30.5188 161.773 31.1305C159.914 32.3487 154.759 33.6547 152.445 34.6476C149.217 36.0332 145.735 37.7561 142.263 38.2305C142.147 38.2431 141.818 38.686 141.767 38.864C141.871 38.905 125.297 27.674 124.693 27.1887Z"/><path fill="#B14DB5" d="M33.4432 177.823C34.7372 176.909 35.063 174.911 35.887 174.474C38.6003 174.92 44.5935 183.047 46.3043 185.252C47.5796 186.895 46.9082 188.478 47.9005 189.372C48.3273 189.066 48.4168 188.988 48.899 188.794C48.7123 190.08 46.2266 191.134 46.4645 192.796C44.4324 196.139 43.1764 198.402 41.827 202.183C41.5702 202.903 40.491 206.421 40.3053 206.794C40.176 207.835 39.9884 208.949 40.0829 209.986C40.2699 210.726 40.43 211.476 40.7353 212.174C39.9684 216.36 41.5239 222.613 41.1551 223.777C41.9944 226.291 44.9896 231.369 44.9478 232.748C37.0793 225.126 32.2295 214.443 30.6214 203.684C30.4812 203.281 30.229 200.566 30.1987 200.053C29.7062 191.702 30.7884 185.588 33.4432 177.823Z"/><path fill="#E13DBA" d="M30.6214 203.684L30.817 203.187C31.8083 206.068 32.9782 214.888 35.4436 216.448L35.8738 216.479L36.1467 215.88C37.5647 215.99 37.2409 216.55 38.3246 216.063C38.8447 215.316 39.1091 213.526 39.2231 212.586C38.7981 211.638 39.549 207.301 40.3053 206.794C40.176 207.835 39.9884 208.949 40.0829 209.986C40.2699 210.726 40.43 211.476 40.7353 212.174C39.9684 216.36 41.5239 222.613 41.1551 223.777C41.9944 226.291 44.9896 231.369 44.9478 232.748C37.0793 225.126 32.2295 214.443 30.6214 203.684Z"/><path fill="#061D38" d="M40.0829 209.986C40.2699 210.726 40.43 211.476 40.7353 212.174C39.9684 216.36 41.5239 222.613 41.1551 223.777C39.801 220.465 39.6708 215.997 39.7694 212.492C39.919 211.731 39.9978 210.772 40.0829 209.986Z"/><defs><linearGradient id="gradient_15" gradientUnits="userSpaceOnUse" x1="200.26503" y1="66.095551" x2="221.74484" y2="43.707569"><stop offset="0" stop-color="#A365C6"/><stop offset="1" stop-color="#5B97E3"/></linearGradient></defs><path fill="url(#gradient_15)" d="M207.52 29.0268C209.28 31.0489 210.122 32.6501 211.41 34.9475C216.611 44.1518 219.023 54.6702 218.352 65.2211C217.995 70.4314 217.015 73.6926 215.486 78.5953L215.165 77.5171C213.941 76.6327 213.111 76.3733 211.706 75.8073C208.781 74.604 206.762 71.6378 204.332 69.6359C203.186 68.692 201.839 67.9392 201.269 66.5628C205.047 62.8931 208.597 54.3011 209.59 49.0592L208.618 48.0814C209.544 45.2322 209.351 41.6779 209.055 38.7322C208.933 37.5152 208.264 35.5609 208.893 34.5461C208.372 32.5733 207.555 31.1754 207.52 29.0268Z"/><path fill="#061D38" d="M208.893 34.5461C210.218 39.6697 210.795 43.784 209.59 49.0592L208.618 48.0814C209.544 45.2322 209.351 41.6779 209.055 38.7322C208.933 37.5152 208.264 35.5609 208.893 34.5461Z"/></svg>