<?xml version="1.0" encoding="iso-8859-1"?>
<!-- Uploaded to: SVG Repo, www.svgrepo.com, Generator: SVG Repo Mixer Tools -->
<!DOCTYPE svg PUBLIC "-//W3C//DTD SVG 1.1//EN" "http://www.w3.org/Graphics/SVG/1.1/DTD/svg11.dtd">
<svg fill="#9ca3af" version="1.1" id="Capa_1" xmlns="http://www.w3.org/2000/svg" xmlns:xlink="http://www.w3.org/1999/xlink" 
	 width="800px" height="800px" viewBox="0 0 585.918 585.918"
	 xml:space="preserve">
<g>
	<path d="M154.172,259.95l-0.273,0.011c-1.399,5.853-2.801,13.31-4.339,18.995l-5.574,20.795l20.916,0.096l-5.939-20.953
		C157.279,273.066,155.592,265.764,154.172,259.95z"/>
	<path d="M69.145,260.578c-4.735,0.092-7.423,0.554-8.788,0.861v25.817l7.632-0.031c9.772-0.027,15.609-5.386,15.609-13.686
		C83.599,264.825,78.153,260.567,69.145,260.578z"/>
	<path d="M357.4,535.335c0.767,0.042,1.543,0.115,2.33,0.115h177.39c20.745,0,37.627-16.883,37.627-37.628V86.604
		c0-20.743-16.882-37.628-37.627-37.628H359.73c-0.782,0-1.563,0.069-2.33,0.113V0L11.17,46.207v492.31l346.23,47.401V535.335z
		 M359.73,70.479h177.39c8.892,0,16.125,7.233,16.125,16.125v411.218c0,8.893-7.233,16.127-16.125,16.127H359.73
		c-0.792,0-1.563-0.127-2.33-0.243V326.397l73.911-62.804L358.765,251.3c0,0-0.566,1.414-1.364,3.918V70.709
		C358.167,70.602,358.933,70.479,359.73,70.479z M86.342,339.951c-1.431-2.693-3.517-10.477-6.113-22.173
		c-2.333-11.801-6.079-15.046-14.034-15.224l-5.837-0.031v36.778l-18.993-0.483v-91.331c6.11-1.267,15.31-2.338,25.596-2.601
		c12.875-0.339,21.998,1.533,28.308,6.751c5.289,4.42,8.21,11.046,8.21,19.857c0,12.213-8.087,20.591-15.699,23.552v0.421
		c6.16,2.708,9.596,9.086,11.842,17.9c2.785,10.813,5.586,23.38,7.315,27.117L86.342,339.951z M175.475,342.224l-7.434-25.611
		l-27.108-0.335l-6.606,24.912l-21.491-0.561l28.097-96.978l28.108-0.732l30.258,99.916L175.475,342.224z M302.418,345.464
		l-26.551-0.672l-9.01-45.062c-2.037-10.501-3.756-20.215-5.019-32.079h-0.318c-1.882,11.73-3.59,21.588-6.092,32.048l-9.91,44.311
		l-25.4-0.651L196.38,242.215l24.2-0.627l7.688,41.953c2.278,12.127,4.407,25.355,6.079,35.707h0.317
		c1.672-11.086,4.108-23.402,6.73-36.083l8.767-42.347l25.41-0.656l8.601,44.045c2.414,12.32,4.186,23.575,5.795,35.303l0.318,0.011
		c1.606-11.718,4.031-24.074,6.297-36.624l8.956-43.515l25.647-0.671L302.418,345.464z"/>
	<path d="M546.105,290.644c0,0-0.903-35.478-29.181-69.408l-42.095,87.692L546.105,290.644z"/>
	<path d="M360.402,333.999c0,0,16.368,31.485,56.663,49.602l-0.599-97.285L360.402,333.999z"/>
	<path d="M508.32,213.629c0,0-28.514-21.137-72.661-19.748l43.176,87.171L508.32,213.629z"/>
	<path d="M428.141,386.651c0,0,34.89,6.498,73.966-14.111l-77.02-59.413L428.141,386.651z"/>
	<path d="M424.352,195.995c0,0-34.206,9.459-60.284,45.114l95.266,19.632L424.352,195.995z"/>
	<path d="M511.344,365.694c0,0,26.595-23.497,34.406-66.972l-94.227,24.115L511.344,365.694z"/>
</g>
</svg>